# AST/ASF file generated using VICON BodyLanguage
# -----------------------------------------------
:version 1.10
:name VICON
:units
  mass 1.0
  length 0.45
  angle deg
:documentation
   .ast/.asf automatically generated from VICON data using
   VICON BodyBuilder and BodyLanguage model FoxedUp or BRILLIANT.MOD
:root
   order TX TY TZ RX RY RZ
   axis XYZ
   position 0 0 0  
   orientation 0 0 0 
:bonedata
  begin
     id 1 
     name lhipjoint
     direction 0.61886 -0.69539 0.365302 
     length 2.20474 
     axis 0 0 0  XYZ
  end
  begin
     id 2 
     name lfemur
     direction 0.34202 -0.939693 0  
     length 6.65149  
     axis 0 0 20  XYZ
    dof rx ry rz
    limits (-160.0 20.0)
           (-70.0 70.0)
           (-60.0 70.0)
  end
  begin
     id 3 
     name ltibia
     direction 0.34202 -0.939693 0   
     length 6.35814   
     axis 0 0 20   XYZ
    dof rx
    limits (-10.0 170.0)
  end
  begin
     id 4 
     name lfoot
     direction 0.101224 -0.278109 0.955201   
     length 2.18766   
     axis -90 7.62852e-016 20   XYZ
    dof rx rz
    limits (-45.0 90.0)
           (-70.0 20.0)
  end
  begin
     id 5 
     name ltoes
     direction 1.53524e-011 -4.21877e-011 1   
     length 1.09206   
     axis -90 7.62852e-016 20   XYZ
    dof rx
    limits (-90.0 20.0)
  end
  begin
     id 6 
     name rhipjoint
     direction -0.600207 -0.708087 0.371972   
     length 2.1652  
     axis 0 0 0  XYZ 
  end
  begin
     id 7 
     name rfemur
     direction -0.34202 -0.939693 0   
     length 6.54691   
     axis 0 0 -20   XYZ
    dof rx ry rz
    limits (-160.0 20.0)
           (-70.0 70.0)
           (-70.0 60.0)
  end
  begin
     id 8 
     name rtibia
     direction -0.34202 -0.939693 0   
     length 6.37474   
     axis 0 0 -20   XYZ
    dof rx
    limits (-10.0 170.0)
 end
 begin
     id 9 
     name rfoot
     direction -0.111266 -0.3057 0.945604   
     length 2.00903  
     axis -90 -7.62852e-016 -20   XYZ
    dof rx rz
    limits (-45.0 90.0)
           (-20.0 70.0)
  end
  begin
     id 10 
     name rtoes
     direction -1.5362e-011 -4.21913e-011 1   
     length 1.00221   
     axis -90 -7.62852e-016 -20   XYZ
    dof rx
    limits (-90.0 20.0)
  end
  begin
     id 11 
     name lowerback
     direction -0.0224561 0.999731 -0.00577314   
     length 2.10409   
     axis 0 0 0   XYZ
    dof rx ry rz
    limits (-20.0 45.0)
           (-30.0 30.0)
           (-30.0 30.0)
  end
  begin
     id 12 
     name upperback
     direction 0.0213126 0.999185 -0.0342817   
     length 2.09783   
     axis 0 0 0   XYZ
    dof rx ry rz
    limits (-20.0 45.0)
           (-30.0 30.0)
           (-30.0 30.0)
  end
  begin
     id 13 
     name thorax
     direction 0.0312356 0.999036 -0.0308451   
     length 2.09788   
     axis 0 0 0   XYZ
    dof rx ry rz
    limits (-20.0 45.0)
           (-30.0 30.0)
           (-30.0 30.0)
  end
  begin
     id 14 
     name lowerneck
     direction -0.0114419 0.996481 0.0830329   
     length 1.38575   
     axis 0 0 0   XYZ
    dof rx ry rz
    limits (-20.0 45.0)
           (-30.0 30.0)
           (-30.0 30.0)
  end
  begin
     id 15 
     name upperneck
     direction -0.0075675 0.996187 -0.0869092   
     length 1.39401   
     axis 0 0 0   XYZ
    dof rx ry rz
    limits (-20.0 45.0)
           (-30.0 30.0)
           (-30.0 30.0)
  end
  begin
     id 16
     name head
     direction -0.00222073 0.999264 -0.0382974  
     length 1.3964  
     axis 0 0 0   XYZ
    dof rx ry rz
    limits (-20.0 45.0)
           (-30.0 30.0)
           (-30.0 30.0)
  end
  begin
     id 17 
     name lclavicle
     direction 0.965962 0.222138 0.132556  
     length 2.81514  
     axis 0 0 0   XYZ
    dof ry rz
    limits (-20.0 10.0)
           (0.0 20.0)
  end
  begin
     id 18 
     name lhumerus
     direction 1 -4.48972e-011 7.03471e-018   
     length 4.47366   
     axis 180 -30 -90   XYZ
    dof rx ry rz
    limits (-60.0 90.0)
           (-90.0 90.0)
           (-90.0 90.0)
  end
  begin
     id 19
     name lradius
     direction 1 -4.48951e-011 -6.22192e-028   
     length 3.19948   
     axis 180 -30 -90   XYZ
    dof rx
    limits (-10.0 170.0)
  end
  begin
     id 20
     name lwrist
     direction 1 -4.48967e-011 -1.24264e-027   
     length 1.59974   
     axis 1.40095e-015 90 90   XYZ
    dof ry
    limits (-180.0 0.0)
 end
  begin
     id 21 
     name lhand
     direction 1 -4.4897e-011 -2.48528e-027   
     length 0.492667   
     axis 1.58582e-015 90 90   XYZ
    dof rx rz
    limits (-90.0 90.0)
           (-45.0 45.0)
  end
  begin
     id 22 
     name lfingers
     direction 1 -4.48996e-011 -4.97056e-027   
     length 0.397201   
     axis 3.17164e-015 90 90   XYZ
    dof rx
    limits (0.0 90.0)
  end
  begin
     id 23
     name lthumb
     direction 0.707107 -6.34981e-011 0.707107   
     length 0.570303   
     axis -90 45 2.85299e-015   XYZ
    dof rx rz
    limits (-45.0 45.0)
           (-45.0 45.0)
  end
  begin
     id 24 
     name rclavicle
     direction -0.961164 0.229034 0.153972   
     length 3.09348  
     axis 0 0 0   XYZ 
    dof ry rz
    limits (-10.0 20.0)
           (-20.0 0.0)
  end
  begin
     id 25 
     name rhumerus
     direction -1 -4.48971e-011 -9.06263e-028  
     length 4.3269   
     axis 180 30 90   XYZ
    dof rx ry rz
    limits (-90.0 60.0)
           (-90.0 90.0)
           (-90.0 90.0)
  end
  begin
     id 26 
     name rradius
     direction -1 -4.48953e-011 1.44659e-027   
     length 3.1896   
     axis 180 30 90   XYZ
    dof rx
    limits (-10.0 170.0)
  end
  begin
     id 27 
     name rwrist
     direction -1 -4.48988e-011 -1.24264e-027   
     length 1.5948   
     axis 1.40095e-015 -90 -90   XYZ
    dof ry
    limits (-180.0 0.0)
  end
  begin
     id 28
     name rhand
     direction -1 -4.49033e-011 -2.48528e-027   
     length 0.464496   
     axis 1.58582e-015 -90 -90   XYZ
    dof rx rz
    limits (-90.0 90.0)
           (-45.0 45.0)
  end
  begin
     id 29
     name rfingers
     direction -1 -4.48905e-011 -4.97056e-027   
     length 0.374489   
     axis 3.17164e-015 -90 -90   XYZ
    dof rx
    limits (0.0 90.0)
  end
  begin
     id 30
     name rthumb
     direction -0.707107 -6.34909e-011 0.707107   
     length 0.537693   
     axis -90 -45 -2.85299e-015   XYZ
    dof rx rz
    limits (-45.0 45.0)
           (-45.0 45.0)
  end
:hierarchy
  begin
    root lhipjoint rhipjoint lowerback
    lhipjoint lfemur
    lfemur ltibia
    ltibia lfoot
    lfoot ltoes
    rhipjoint rfemur
    rfemur rtibia
    rtibia rfoot
    rfoot rtoes
    lowerback upperback
    upperback thorax
    thorax lowerneck lclavicle rclavicle
    lowerneck upperneck
    upperneck head
    lclavicle lhumerus
    lhumerus lradius
    lradius lwrist
    lwrist lhand lthumb
    lhand lfingers
    rclavicle rhumerus
    rhumerus rradius
    rradius rwrist
    rwrist rhand rthumb
    rhand rfingers
  end

#!OML:ASF G:\acrobat\cartwheel_test 2\Patient 1\Session 2\acrobat4.ASF
:FULLY-SPECIFIED
:DEGREES
300
root 9.95239 15.4621 18.2712 12.8749 163.194 364.312
lowerback -6.53798 4.5725 -0.45952
upperback 0.80834 6.1367 0.0203703
thorax 4.43999 3.03096 0.903819
lowerneck -5.1603 -1.16032 1.75629
upperneck 19.5454 -0.679138 -0.398934
head 6.78715 0.181006 -0.423
rclavicle -4.29872e-014 7.35503e-015
rhumerus -43.5535 -6.4313 -64.95
rradius 43.671
rwrist -5.63973
rhand -17.6575 -28.4371
rfingers 7.12502
rthumb 8.60089 -58.2419
lclavicle -4.29872e-014 7.35503e-015
lhumerus -44.8869 1.45517 64.4192
lradius 108.124
lwrist -161.703
lhand -30.5965 1.9994
lfingers 7.12502
lthumb -3.8935 31.9436
rfemur -9.92628 -3.97289 31.7936
rtibia 35.1305
rfoot -14.0626 -26.3626
rtoes -23.1287
lfemur -39.7979 2.81093 -18.9273
ltibia 39.5698
lfoot -28.5557 26.3061
ltoes -4.87342
301
root 9.94028 15.4457 18.1731 13.0627 164.297 364.231
lowerback -6.92728 4.67723 -0.629528
upperback 0.872296 6.29764 -0.0855757
thorax 4.71735 3.10318 0.943882
lowerneck -5.50843 -1.44679 1.14588
upperneck 20.0868 -1.08979 0.332398
head 7.02843 0.0254986 -0.114226
rclavicle 9.55657e-014 -5.56597e-015
rhumerus -42.9655 -6.30282 -65.1704
rradius 43.9863
rwrist -5.69217
rhand -16.2285 -28.6172
rfingers 7.12502
rthumb 9.97972 -58.3607
lclavicle 9.55657e-014 -5.56597e-015
lhumerus -45.4533 1.74904 64.1346
lradius 108.563
lwrist -162.025
lhand -31.0877 2.24405
lfingers 7.12502
lthumb -4.36785 32.179
rfemur -9.99695 -3.89327 31.7827
rtibia 35.4457
rfoot -14.2855 -26.9466
rtoes -23.1593
lfemur -39.0348 3.84033 -19.7915
ltibia 39.612
lfoot -27.8754 26.1968
ltoes -5.07467
302
root 9.92347 15.4444 18.066 13.3751 165.378 364.113
lowerback -7.38433 4.74012 -0.826165
upperback 0.876314 6.40803 -0.187947
thorax 4.96765 3.14964 1.00102
lowerneck -5.68772 -1.72583 0.768506
upperneck 20.4229 -1.48505 0.823054
head 7.17562 -0.130754 0.0789935
rclavicle 1.20464e-013 -1.27222e-014
rhumerus -42.4792 -6.18167 -65.2794
rradius 44.4319
rwrist -5.56095
rhand -15.3293 -28.6872
rfingers 7.12502
rthumb 10.8472 -58.3871
lclavicle 1.20464e-013 -1.27222e-014
lhumerus -46.0535 1.97141 63.7525
lradius 109.125
lwrist -162.199
lhand -31.4947 2.34411
lfingers 7.12502
lthumb -4.76081 32.2706
rfemur -10.1901 -3.75288 31.6977
rtibia 35.7192
rfoot -14.4479 -27.4808
rtoes -23.3124
lfemur -38.7017 3.88316 -20.3544
ltibia 39.567
lfoot -29.8654 26.8552
ltoes -4.07986
303
root 9.90265 15.4563 17.9513 13.6755 166.482 364.059
lowerback -7.7 4.78628 -0.855642
upperback 0.793064 6.48306 -0.334742
thorax 5.07113 3.18656 0.90001
lowerneck -5.44697 -0.474875 0.495974
upperneck 20.4297 -2.3078 1.59826
head 7.15399 -1.41656 0.195839
rclavicle 7.13637e-014 -1.70955e-014
rhumerus -42.2164 -6.0832 -65.4579
rradius 44.8905
rwrist -5.1925
rhand -16.4792 -28.1231
rfingers 7.12502
rthumb 9.7378 -57.8779
lclavicle 7.13637e-014 -1.70955e-014
lhumerus -46.6996 1.91098 63.1211
lradius 109.727
lwrist -162.105
lhand -31.6928 2.62065
lfingers 7.12502
lthumb -4.95212 32.5428
rfemur -10.2963 -3.75335 31.6274
rtibia 35.9235
rfoot -14.3229 -27.773
rtoes -23.904
lfemur -38.5191 1.5772 -19.921
ltibia 39.4792
lfoot -32.3291 28.89
ltoes -0.651484
304
root 9.8798 15.4606 17.8372 13.9807 167.72 364.06
lowerback -7.93723 4.7479 -0.823294
upperback 0.725218 6.43635 -0.421438
thorax 5.14809 3.16477 0.80631
lowerneck -5.356 -0.668081 0.13682
upperneck 20.5774 -2.67401 2.16613
head 7.20044 -1.57926 0.410716
rclavicle 9.94917e-014 -8.74653e-015
rhumerus -41.9017 -5.73439 -65.6618
rradius 45.2391
rwrist -4.75348
rhand -17.5494 -27.5761
rfingers 7.12502
rthumb 8.70524 -57.3766
lclavicle 9.94917e-014 -8.74653e-015
lhumerus -47.2138 1.89903 62.3258
lradius 110.27
lwrist -161.956
lhand -31.9322 3.06106
lfingers 7.12502
lthumb -5.18326 32.9777
rfemur -10.3171 -3.92289 31.6031
rtibia 36.0557
rfoot -13.9655 -27.7893
rtoes -24.5027
lfemur -38.4806 -1.11899 -19.3153
ltibia 39.422
lfoot -34.2768 30.1112
ltoes 1.2271
305
root 9.85259 15.4575 17.7242 14.3243 168.965 364.268
lowerback -8.16796 4.67666 -0.594711
upperback 0.69559 6.32108 -0.401942
thorax 5.27096 3.11229 0.707206
lowerneck -5.27226 -0.841677 -0.220357
upperneck 20.633 -2.98857 2.68042
head 7.2197 -1.71779 0.613084
rclavicle 9.93923e-015 -1.03368e-014
rhumerus -41.5213 -5.32352 -65.7367
rradius 45.6344
rwrist -4.47346
rhand -16.933 -27.4337
rfingers 7.12502
rthumb 9.30003 -57.2085
lclavicle 9.93923e-015 -1.03368e-014
lhumerus -47.5378 2.00057 61.389
lradius 110.799
lwrist -161.916
lhand -32.1992 3.13669
lfingers 7.12502
lthumb -5.44108 33.0468
rfemur -10.3106 -4.16614 31.7236
rtibia 36.1385
rfoot -13.5002 -27.5072
rtoes -24.6562
lfemur -38.5212 -1.87183 -19.2444
ltibia 39.4448
lfoot -34.1994 30.0045
ltoes 0.911
306
root 9.8195 15.4539 17.6074 14.4206 169.991 364.702
lowerback -8.12904 4.74309 -0.0896149
upperback 0.769276 6.35621 -0.336395
thorax 5.37355 3.1415 0.503639
lowerneck -5.08708 -1.07097 -0.241662
upperneck 20.4725 -3.33918 2.93626
head 7.14533 -1.86528 0.675734
rclavicle -1.04958e-013 -3.97569e-015
rhumerus -41.1942 -5.13282 -65.6129
rradius 46.097
rwrist -4.47746
rhand -15.6615 -26.9493
rfingers 7.12502
rthumb 10.5267 -56.6657
lclavicle -1.04958e-013 -3.97569e-015
lhumerus -47.5843 1.94274 60.4482
lradius 111.458
lwrist -161.832
lhand -32.4048 3.05523
lfingers 7.12502
lthumb -5.63955 32.9602
rfemur -10.0002 -4.48183 31.9126
rtibia 36.2241
rfoot -12.9694 -26.7891
rtoes -24.7003
lfemur -38.2608 -2.31449 -19.0071
ltibia 39.5552
lfoot -34.0126 29.2931
ltoes -0.545918
307
root 9.78829 15.4568 17.4919 14.3033 170.934 365.127
lowerback -7.75785 4.84918 0.362201
upperback 0.862759 6.44935 -0.25074
thorax 5.30236 3.20037 0.327593
lowerneck -4.94644 -1.31732 -0.27165
upperneck 20.329 -3.72243 3.24125
head 7.08743 -2.02502 0.752935
rclavicle -1.07344e-013 -7.95139e-016
rhumerus -40.969 -4.95081 -65.345
rradius 46.5855
rwrist -4.51328
rhand -15.1124 -26.6677
rfingers 7.12502
rthumb 11.0563 -56.3564
lclavicle -1.07344e-013 -7.95139e-016
lhumerus -47.4672 1.7968 59.4217
lradius 112.127
lwrist -161.824
lhand -32.4933 3.47239
lfingers 7.12502
lthumb -5.72504 33.3751
rfemur -9.54215 -5.17836 32.0031
rtibia 36.4139
rfoot -12.2707 -25.5627
rtoes -25.3344
lfemur -37.8781 -2.81053 -18.6681
ltibia 39.6896
lfoot -33.8722 28.1112
ltoes -1.95019
308
root 9.76451 15.462 17.3772 14.0539 171.91 365.468
lowerback -7.27901 4.78957 0.52872
upperback 1.01548 6.34721 -0.0473421
thorax 5.18657 3.15386 0.397429
lowerneck -4.79252 -1.45553 -0.452905
upperneck 20.1553 -3.94141 3.58714
head 7.01819 -2.11482 0.88179
rclavicle 3.94588e-014 -6.36111e-015
rhumerus -40.53 -4.40737 -65.0324
rradius 47.0591
rwrist -4.50215
rhand -15.3979 -26.9864
rfingers 7.12502
rthumb 10.7809 -56.6898
lclavicle 3.94588e-014 -6.36111e-015
lhumerus -47.4231 1.87071 58.2454
lradius 112.584
lwrist -161.732
lhand -32.4664 4.55117
lfingers 7.12502
lthumb -5.69905 34.4545
rfemur -9.12621 -6.20174 32.0036
rtibia 36.8371
rfoot -11.3908 -24.1903
rtoes -27.1971
lfemur -37.439 -2.34473 -18.6701
ltibia 39.787
lfoot -32.8451 26.5829
ltoes -3.82852
